<svg xmlns="http://www.w3.org/2000/svg" viewBox="0 0 25 29" width="25" height="29">
	<style>
		tspan { white-space:pre }
		.shp0 { fill: #757575 } 
	</style>
	<path id="Shape 44" class="shp0" d="M22.64 9.51C21.71 9.51 20.96 10.27 20.96 11.22L20.96 17.9C20.96 18.84 21.71 19.61 22.64 19.61C23.57 19.61 24.32 18.84 24.32 17.9L24.32 11.22C24.32 10.27 23.57 9.51 22.64 9.51ZM2.33 9.51C1.4 9.51 0.65 10.27 0.65 11.22L0.65 17.9C0.65 18.84 1.4 19.61 2.33 19.61C3.26 19.61 4.02 18.84 4.02 17.9L4.02 11.22C4.02 10.27 3.26 9.51 2.33 9.51ZM5.03 9.56L5.03 21.77C5.03 22.49 5.62 23.08 6.34 23.08L7.84 23.08L7.84 26.8C7.84 27.74 8.6 28.51 9.53 28.51C10.46 28.51 11.21 27.74 11.21 26.8L11.21 23.08L13.83 23.08L13.83 26.8C13.83 27.74 14.58 28.51 15.51 28.51C16.44 28.51 17.2 27.74 17.2 26.8L17.2 23.08L18.7 23.08C19.42 23.08 20.01 22.49 20.01 21.77L20.01 9.56L5.03 9.56ZM16.04 3.23L17.42 1.22C17.5 1.1 17.48 0.95 17.38 0.87C17.27 0.8 17.11 0.84 17.03 0.96L15.59 3.04C14.65 2.67 13.6 2.46 12.49 2.46C11.38 2.46 10.33 2.67 9.38 3.04L7.94 0.96C7.86 0.84 7.7 0.8 7.6 0.87C7.49 0.95 7.47 1.1 7.55 1.22L8.94 3.23C6.74 4.26 5.19 6.2 5 8.47L19.98 8.47C19.78 6.2 18.24 4.26 16.04 3.23ZM9.33 6.4C8.87 6.4 8.5 6.03 8.5 5.57C8.5 5.11 8.87 4.74 9.33 4.74C9.78 4.74 10.16 5.11 10.16 5.57C10.16 6.03 9.78 6.4 9.33 6.4ZM15.75 6.4C15.29 6.4 14.92 6.03 14.92 5.57C14.92 5.11 15.29 4.74 15.75 4.74C16.21 4.74 16.58 5.11 16.58 5.57C16.58 6.03 16.21 6.4 15.75 6.4Z" />
</svg>