<svg xmlns="http://www.w3.org/2000/svg" viewBox="0 0 24 28" width="24" height="28">
	<style>
		tspan { white-space:pre }
		.shp0 { fill: #757575 } 
	</style>
	<path id="Shape 45" class="shp0" d="M23 9.44C21.61 7.71 19.67 6.71 17.83 6.71C15.39 6.71 14.36 7.86 12.67 7.86C10.93 7.86 9.61 6.71 7.51 6.71C5.44 6.71 3.24 7.97 1.85 10.11C-0.12 13.13 0.22 18.81 3.4 23.65C4.53 25.38 6.05 27.33 8.04 27.35C9.8 27.36 10.3 26.22 12.7 26.21C15.1 26.19 15.55 27.36 17.31 27.34C19.3 27.32 20.9 25.17 22.04 23.44C22.85 22.2 23.16 21.57 23.79 20.17C19.19 18.43 18.45 11.93 23 9.44ZM15.98 4.77C16.86 3.64 17.54 2.04 17.29 0.4C15.85 0.5 14.16 1.42 13.17 2.62C12.28 3.7 11.54 5.32 11.82 6.88C13.4 6.93 15.03 5.99 15.98 4.77Z" />
</svg>