<svg xmlns="http://www.w3.org/2000/svg" viewBox="0 0 30 32" width="30" height="32">
	<style>
		tspan { white-space:pre }
		.shp0 { fill: #5c5c5c } 
	</style>
	<path id="Shape 52" class="shp0" d="M14.76 1C6.61 1 0.01 7.72 0.01 16C0.01 24.29 6.61 31 14.76 31C22.92 31 29.52 24.29 29.52 16C29.52 7.72 22.92 1 14.76 1ZM18.67 15.94L16.12 15.94C16.12 20.09 16.12 25.2 16.12 25.2L12.33 25.2C12.33 25.2 12.33 20.14 12.33 15.94L10.53 15.94L10.53 12.67L12.33 12.67L12.33 10.55C12.33 9.03 13.04 6.66 16.15 6.66L18.96 6.67L18.96 9.85C18.96 9.85 17.25 9.85 16.92 9.85C16.59 9.85 16.12 10.02 16.12 10.74L16.12 12.67L19 12.67L18.67 15.94Z" />
</svg>