<svg xmlns="http://www.w3.org/2000/svg" viewBox="0 0 17 11" width="17" height="11">
	<style>
		tspan { white-space:pre }
		.shp0 { fill: #ffffff } 
	</style>
	<path id="Rounded Rectangle 4 copy 2" class="shp0" d="M1,2c0,0.55 0.45,1 1,1h14c0.55,0 1,-0.45 1,-1c0,-0.55 -0.45,-1 -1,-1h-14c-0.55,0 -1,0.45 -1,1zM1,6c0,0.55 0.45,1 1,1h14c0.55,0 1,-0.45 1,-1c0,-0.55 -0.45,-1 -1,-1h-14c-0.55,0 -1,0.45 -1,1zM1,10c0,0.55 0.45,1 1,1h14c0.55,0 1,-0.45 1,-1c0,-0.55 -0.45,-1 -1,-1h-14c-0.55,0 -1,0.45 -1,1z" />
</svg>