<svg xmlns="http://www.w3.org/2000/svg" viewBox="0 0 15 25" width="15" height="25">
	<style>
		tspan { white-space:pre }
		.shp0 { fill: #83b729 } 
	</style>
	<path id="Shape 50" class="shp0" d="M12.88 1L2.12 1C0.95 1 0 1.98 0 3.17L0 22.83C0 24.02 0.95 25 2.12 25L12.88 25C14.05 25 15 24.02 15 22.83L15 3.17C15 1.98 14.05 1 12.88 1ZM5.99 2.56L8.97 2.56C9.14 2.56 9.27 2.68 9.27 2.83C9.27 2.99 9.14 3.11 8.97 3.11L5.99 3.11C5.83 3.11 5.69 2.99 5.69 2.83C5.69 2.68 5.83 2.56 5.99 2.56ZM7.48 23.89C7.09 23.89 6.76 23.56 6.76 23.16C6.76 22.75 7.09 22.42 7.48 22.42C7.88 22.42 8.2 22.75 8.2 23.16C8.2 23.56 7.88 23.89 7.48 23.89ZM13 21.5L1.97 21.5L1.97 4.5L13 4.5L13 21.5Z" />
</svg>