<svg xmlns="http://www.w3.org/2000/svg" viewBox="0 0 30 31" width="30" height="31">
	<style>
		tspan { white-space:pre }
		.shp0 { fill: #ffffff } 
	</style>
	<path id="Shape 47" class="shp0" d="M16.43 19.94L9.83 19.94C6.33 19.94 3.48 17.12 3.48 13.64L3.48 5.69C2.69 5.9 1.97 6.29 1.38 6.88C0.49 7.76 0 8.93 0 10.18L0 18.21C0 19.46 0.49 20.63 1.38 21.51C2.27 22.4 3.45 22.88 4.71 22.88L4.81 22.88C4.84 23.22 4.87 24.41 4.87 25.75L4.87 29.02C4.87 30.56 5.7 30.88 6.73 29.71L10.99 24.88C11.76 23.99 12.44 23.23 12.75 22.88L19.03 22.88L17.7 21.38C17.22 20.83 16.78 20.33 16.43 19.94ZM28.54 2.31C27.65 1.43 26.47 0.95 25.21 0.95L9.83 0.95C8.57 0.95 7.38 1.43 6.5 2.31C5.6 3.2 5.12 4.37 5.12 5.62L5.12 13.65C5.12 16.22 7.23 18.32 9.83 18.32L17.17 18.32C17.48 18.66 18.16 19.43 18.94 20.31L23.19 25.15C24.22 26.31 25.05 26 25.05 24.46L25.05 21.19C25.05 19.84 25.07 18.66 25.11 18.32L25.21 18.32C26.47 18.32 27.65 17.83 28.54 16.95C29.43 16.07 29.92 14.9 29.92 13.65L29.92 5.62C29.92 4.37 29.43 3.2 28.54 2.31ZM12.5 11.9C11.45 11.9 10.6 11.05 10.6 10.02C10.6 8.97 11.45 8.12 12.5 8.12C13.56 8.12 14.41 8.97 14.41 10.02C14.41 11.05 13.56 11.9 12.5 11.9ZM17.81 11.9C16.76 11.9 15.91 11.05 15.91 10.01C15.91 8.97 16.76 8.12 17.81 8.12C18.87 8.12 19.72 8.97 19.72 10.01C19.72 11.05 18.87 11.9 17.81 11.9ZM23.12 11.9C22.07 11.9 21.22 11.05 21.22 10.01C21.22 8.97 22.07 8.12 23.12 8.12C24.17 8.12 25.03 8.97 25.03 10.01C25.03 11.05 24.17 11.9 23.12 11.9Z" />
</svg>