<svg xmlns="http://www.w3.org/2000/svg" viewBox="0 0 20 35" width="20" height="35">
	<style>
		tspan { white-space:pre }
		.shp0 { fill: #ffffff } 
	</style>
	<path id="Rounded Rectangle 1 copy 5" class="shp0" d="M18.61,15.78l-14.38,-14.38c-0.78,-0.78 -2.05,-0.78 -2.83,0c-0.78,0.78 -0.78,2.05 0,2.83l14.38,14.38c0.78,0.78 2.05,0.78 2.83,0c0.78,-0.78 0.78,-2.05 0,-2.83zM18.61,16.39c-0.78,-0.78 -2.05,-0.78 -2.83,0l-14.38,14.38c-0.78,0.78 -0.78,2.05 0,2.83c0.78,0.78 2.05,0.78 2.83,0l14.38,-14.38c0.78,-0.78 0.78,-2.05 0,-2.83z" />
</svg>