<svg xmlns="http://www.w3.org/2000/svg" viewBox="0 0 67 44" width="67" height="44">
	<style>
		tspan { white-space:pre }
		.shp0 { fill: #67518f } 
	</style>
	<path id="Shape 51" class="shp0" d="M17.37,19.93l-3.54,1.44v7.15c0,1.1 0.89,2 2,2h21.78l-3.7,-3.7h-16.38v-6.95zM53.18,38.63l8.78,-8.78c0.84,-0.84 0.66,-2.39 -0.41,-3.46l-5.05,-5.05c-0.06,-0.08 -0.12,-0.15 -0.19,-0.23l-3.51,-3.53l-0.47,-0.47c-0.69,-0.69 -1.56,-1.03 -2.3,-0.97c-0.01,0 -0.01,0 -0.02,0c-0.09,0.01 -0.17,0.02 -0.25,0.04c-0.01,0 -0.02,0 -0.03,0.01c-0.08,0.02 -0.16,0.05 -0.24,0.08c-0.02,0.01 -0.04,0.02 -0.06,0.03c-0.06,0.03 -0.11,0.06 -0.17,0.09c-0.02,0.01 -0.04,0.03 -0.07,0.04c-0.07,0.05 -0.13,0.1 -0.18,0.15c0,0 -0.01,0 -0.01,0.01l-0.5,0.5c-0.54,0.54 -0.58,1.42 -0.21,2.28c-0.85,-0.38 -1.73,-0.33 -2.27,0.21l-0.5,0.5c-0.54,0.54 -0.58,1.42 -0.21,2.27c-0.85,-0.38 -1.73,-0.33 -2.27,0.21l-0.5,0.5c0,0 0,0.01 -0.01,0.01c-0.06,0.06 -0.11,0.12 -0.15,0.19c-0.02,0.02 -0.03,0.04 -0.04,0.07c-0.03,0.05 -0.06,0.11 -0.09,0.17c-0.01,0.02 -0.02,0.04 -0.03,0.06c-0.03,0.08 -0.06,0.16 -0.08,0.24c0,0.01 0,0.02 -0.01,0.03c-0.02,0.08 -0.03,0.17 -0.04,0.25c0,0.01 0,0.01 0,0.02c-0.04,0.45 0.08,0.95 0.33,1.43l-4.56,-4.56l-0.31,-0.31l-0.44,-0.44c-0.81,-0.81 -1.92,-1.06 -2.72,-0.69c-0.01,0.01 -0.02,0.01 -0.04,0.02c-0.06,0.03 -0.12,0.07 -0.18,0.1c-0.02,0.01 -0.04,0.03 -0.06,0.04c-0.06,0.05 -0.13,0.1 -0.19,0.16c0,0 -0.01,0 -0.01,0.01l-0.5,0.5c0,0 0,0 -0.01,0.01c-0.06,0.06 -0.11,0.12 -0.16,0.19c-0.02,0.02 -0.03,0.04 -0.04,0.06c-0.04,0.06 -0.07,0.12 -0.1,0.18c-0.01,0.01 -0.01,0.02 -0.02,0.04c-0.37,0.81 -0.12,1.92 0.69,2.73l0.44,0.44l0.31,0.31l9.58,9.58l-2.81,-0.15l-0.48,-0.01l-0.68,-0.02c-1.26,-0.04 -2.34,0.62 -2.71,1.56c-0.01,0.01 -0.01,0.03 -0.01,0.04c-0.03,0.07 -0.05,0.15 -0.07,0.23c-0.01,0.03 -0.01,0.06 -0.02,0.08c-0.02,0.09 -0.03,0.18 -0.03,0.27c0,0 0,0.01 0,0.01l0.03,0.54c0,0 0,0.01 0,0.01c0,0.09 0,0.19 0.02,0.27c0,0.03 0.01,0.06 0.01,0.08c0.01,0.08 0.03,0.16 0.05,0.23c0,0.01 0.01,0.03 0.01,0.04c0.31,0.96 1.35,1.68 2.61,1.71l0.68,0.02l0.48,0.02l1.64,0.11c0,0 0,0 0.01,0l1.52,0.05l2.56,0.09c0.03,0 0.06,0 0.09,0l4.47,0.3c0.67,0.02 1.22,-0.27 1.66,-0.7c0.01,-0.01 0.02,-0.01 0.03,-0.02zM14.76,10.23c0.68,-0.27 1.38,-0.41 2.09,-0.41c0.23,0 0.46,0.02 0.69,0.05v-6.18h33.16v10.25c1.15,0.13 2.3,0.69 3.2,1.59l0.48,0.48l0.01,0.01v-14.04c0,-1.1 -0.9,-2 -2,-2h-36.56c-1.1,0 -2,0.9 -2,2v8.6l0.28,-0.11zM11.6,28.47l0,-8.59l2.24,-0.91v0l2.7,-1.1l0.46,-0.19l0.65,-0.26c1.21,-0.49 1.96,-1.55 1.92,-2.59c0,-0.02 0,-0.03 0,-0.05c0,-0.08 -0.02,-0.16 -0.03,-0.24c-0.01,-0.03 -0.01,-0.06 -0.02,-0.08c-0.02,-0.09 -0.05,-0.18 -0.08,-0.27c0,0 0,-0.01 0,-0.01l-0.31,-0.77c0,0 0,-0.01 -0.01,-0.01c-0.04,-0.09 -0.08,-0.17 -0.13,-0.25c-0.01,-0.02 -0.03,-0.05 -0.05,-0.07c-0.04,-0.07 -0.09,-0.13 -0.15,-0.2c-0.01,-0.01 -0.02,-0.02 -0.03,-0.04c-0.36,-0.4 -0.87,-0.66 -1.45,-0.75c-0.01,0 -0.01,0 -0.02,0c-0.07,-0.01 -0.13,-0.02 -0.2,-0.02c-0.01,0 -0.03,0 -0.04,0c-0.06,0 -0.13,-0.01 -0.19,-0.01c-0.02,0 -0.04,0 -0.05,0c-0.06,0 -0.12,0 -0.18,0.01c-0.02,0 -0.04,0 -0.06,0c-0.06,0 -0.11,0.01 -0.17,0.02c-0.02,0 -0.05,0.01 -0.07,0.01c-0.06,0.01 -0.11,0.02 -0.17,0.03c-0.02,0.01 -0.05,0.01 -0.08,0.02c-0.06,0.01 -0.12,0.03 -0.17,0.05c-0.02,0.01 -0.04,0.01 -0.07,0.02c-0.08,0.03 -0.16,0.05 -0.24,0.09l-0.65,0.26l-0.46,0.18l-0.64,0.25v0.01l-6.32,2.57c-1.11,0.45 -1.83,1.38 -1.91,2.34c0,0.01 0,0.01 -0.01,0.02l-0.33,10.17c-0.02,0.69 0.27,1.26 0.73,1.72c0.01,0.01 0.02,0.02 0.02,0.03l9.06,9.06c0.87,0.87 2.46,0.68 3.57,-0.42l5.74,-5.74h-8.53c-2.36,0 -4.27,-1.91 -4.27,-4.27zM5.45,30.67c-0.85,-0.85 -2.42,-0.67 -3.5,0.42c-1.08,1.08 -1.27,2.65 -0.41,3.5l8.87,8.88c0.85,0.85 2.42,0.67 3.5,-0.41c1.08,-1.08 1.27,-2.65 0.41,-3.5zM66.05,31.09c-1.08,-1.08 -2.65,-1.27 -3.5,-0.42l-8.87,8.88c-0.85,0.85 -0.67,2.42 0.42,3.5c1.08,1.08 2.65,1.27 3.5,0.41l8.87,-8.87c0.85,-0.85 0.67,-2.42 -0.42,-3.5z" />
</svg>