<svg xmlns="http://www.w3.org/2000/svg" viewBox="0 0 31 32" width="31" height="32">
	<style>
		tspan { white-space:pre }
		.shp0 { fill: #5b5b5b } 
	</style>
	<path id="Shape 53" class="shp0" d="M15.3 1C7.15 1 0.54 7.72 0.54 16C0.54 24.29 7.15 31 15.3 31C23.45 31 30.06 24.29 30.06 16C30.06 7.72 23.45 1 15.3 1ZM22.74 12.98C22.74 13.14 22.75 13.3 22.75 13.47C22.75 18.46 19.01 24.22 12.16 24.22C10.06 24.22 8.11 23.6 6.46 22.52C6.75 22.56 7.05 22.58 7.35 22.58C9.09 22.58 10.7 21.97 11.97 20.96C10.34 20.93 8.97 19.83 8.49 18.33C8.72 18.38 8.95 18.4 9.19 18.4C9.53 18.4 9.86 18.36 10.17 18.27C8.47 17.92 7.19 16.39 7.19 14.56C7.19 14.54 7.19 14.53 7.19 14.51C7.69 14.8 8.27 14.97 8.88 14.99C7.88 14.31 7.22 13.15 7.22 11.84C7.22 11.15 7.4 10.5 7.72 9.94C9.56 12.23 12.3 13.73 15.39 13.89C15.33 13.61 15.29 13.32 15.29 13.03C15.29 10.94 16.96 9.25 19.01 9.25C20.08 9.25 21.05 9.71 21.73 10.44C22.58 10.27 23.37 9.96 24.09 9.52C23.81 10.41 23.22 11.15 22.46 11.61C23.21 11.52 23.93 11.32 24.59 11.02C24.09 11.78 23.46 12.44 22.74 12.98Z" />
</svg>