<svg xmlns="http://www.w3.org/2000/svg" viewBox="0 0 23 25" width="23" height="25">
	<style>
		tspan { white-space:pre }
		.shp0 { fill: #ffffff } 
	</style>
	<path id="Forma 1" class="shp0" d="M22.04 13L14.96 13L14.96 19.78L12.03 16.85L8.96 19.78L8.96 13L0.96 13L0.96 25L22.04 25L22.04 13ZM0 11.99L0.96 11.99L22.04 11.99L23 11.99L23 4.91L17.54 4.91C17.82 4.79 18.1 4.42 18.38 4.29C18.38 4.28 18.39 4.28 18.4 4.28C18.62 4.17 18.88 4.04 19.16 3.89C20.52 3.17 22.19 2 20.91 0.52C20.28 -0.21 19.04 0 18.22 0.16C17.37 0.33 16.53 0.6 15.75 0.98C14.3 1.67 13.07 2.66 12.07 3.89C11.97 4.02 11.87 4.15 11.77 4.28C11.73 4.34 11.68 4.4 11.64 4.46C11.61 4.49 11.59 4.53 11.58 4.56C11.56 4.53 11.54 4.49 11.51 4.46C11.47 4.4 11.42 4.34 11.38 4.28C11.28 4.15 11.18 4.02 11.08 3.89C10.08 2.66 8.85 1.67 7.41 0.98C6.62 0.6 5.78 0.33 4.93 0.16C4.11 0 2.87 -0.21 2.24 0.52C0.96 2 2.63 3.17 3.99 3.89C4.27 4.04 4.53 4.17 4.76 4.28C4.76 4.28 4.77 4.28 4.78 4.29C5.05 4.42 5.33 4.79 5.62 4.91L0 4.91L0 11.99ZM15.89 2.54C16.93 1.99 18.37 1.36 19.57 1.48C20.29 1.55 19.39 2.04 19.17 2.18C18.89 2.35 18.6 2.53 18.31 2.68C17.7 3 17.08 3.29 16.43 3.52C16 3.66 15.57 3.79 15.13 3.89C14.68 4 14.23 4.09 13.77 4.16C13.86 4.07 13.95 3.98 14.04 3.89C14.59 3.36 15.22 2.9 15.89 2.54ZM6.72 3.52C6.07 3.29 5.45 3 4.85 2.68C4.55 2.53 4.27 2.35 3.98 2.18C3.76 2.04 2.86 1.55 3.58 1.48C4.79 1.36 6.23 1.99 7.26 2.54C7.93 2.9 8.56 3.36 9.12 3.89C9.21 3.98 9.3 4.07 9.38 4.16C8.92 4.09 8.47 4 8.02 3.89C7.59 3.79 7.15 3.66 6.72 3.52Z" />
</svg>