<svg xmlns="http://www.w3.org/2000/svg" viewBox="0 0 15 30" width="15" height="30">
	<style>
		tspan { white-space:pre }
		.shp0 { fill: #ffffff } 
	</style>
	<path id="Forma 1" class="shp0" d="M0 17.01L0 22.15C0 26.48 3.36 29.99 7.5 29.99C11.64 29.99 15 26.48 15 22.15L15 17.12C13.08 18.13 7.85 20.07 0 17.01ZM8.46 6.06C8.46 4.74 10.15 4.65 10.15 4.65C15.26 4.65 14.6 0.01 14.6 0.01L13.08 0.01C13.08 3.85 9.8 3.43 9.8 3.43C7.04 3.43 6.46 5.03 6.37 6.08C2.77 6.65 0 9.9 0 13.82L0 16.01C2.42 17.03 8.96 19.2 15 16L15 13.82C15 9.84 12.15 6.55 8.46 6.06ZM8.8 13.51C8.8 14.26 8.21 14.87 7.5 14.87C6.78 14.87 6.2 14.26 6.2 13.51L6.2 9.8C6.2 9.05 6.78 8.44 7.5 8.44C8.22 8.44 8.8 9.05 8.8 9.8L8.8 13.51Z" />
</svg>