<svg xmlns="http://www.w3.org/2000/svg" viewBox="0 0 22 22" width="22" height="22">
	<style>
		tspan { white-space:pre }
		.shp0 { fill: #757575 } 
	</style>
	<path id="Shape 46" class="shp0" d="M21.82 0.31C19.53 0.63 17.37 0.93 15.34 1.21C13.42 1.48 11.97 1.73 10.25 1.97C10.25 3.42 10.25 4.86 10.25 6.3C10.25 7.74 10.25 9.18 10.25 10.63C11.97 10.61 13.42 10.6 15.34 10.59C17.37 10.58 19.53 10.57 21.82 10.55C21.82 8.85 21.82 7.14 21.82 5.44C21.82 3.73 21.82 2.02 21.82 0.31L21.82 0.31ZM9.26 2.11C7.67 2.33 5.78 2.54 4.34 2.74C2.97 2.93 1.65 3.12 0.4 3.29C0.4 4.53 0.4 5.76 0.4 6.99C0.4 8.22 0.4 9.45 0.4 10.68C1.65 10.67 2.97 10.67 4.34 10.66C5.78 10.65 7.66 10.64 9.26 10.63C9.26 9.21 9.26 7.79 9.26 6.37C9.26 4.95 9.26 3.53 9.26 2.11L9.26 2.11ZM0.4 11.41C0.4 12.64 0.4 13.87 0.4 15.1C0.4 16.33 0.4 17.56 0.4 18.79C1.65 18.97 2.96 19.15 4.34 19.35C5.77 19.55 7.66 19.76 9.26 19.98C9.26 18.57 9.26 17.15 9.26 15.73C9.26 14.31 9.26 12.89 9.26 11.47C7.66 11.46 5.78 11.45 4.34 11.44C2.96 11.43 1.65 11.42 0.4 11.41L0.4 11.41ZM10.25 20.12C11.97 20.37 13.42 20.62 15.34 20.89C17.37 21.18 19.53 21.48 21.82 21.8C21.82 20.1 21.82 18.39 21.82 16.68C21.82 14.98 21.82 13.27 21.82 11.56C19.53 11.55 17.37 11.53 15.34 11.52C13.42 11.5 11.97 11.49 10.25 11.48C10.25 12.92 10.25 14.36 10.25 15.8C10.25 17.24 10.25 18.68 10.25 20.12Z" />
</svg>