<svg xmlns="http://www.w3.org/2000/svg" viewBox="0 0 30 32" width="30" height="32">
	<style>
		tspan { white-space:pre }
		.shp0 { fill: #5b5b5b } 
	</style>
	<path id="Shape 54" class="shp0" d="M8.93 17.26L10 17.26L10 22.66L11.03 22.66L11.03 17.26L12.1 17.26L12.1 16.34L8.93 16.34L8.93 17.26ZM15.27 12.78C15.41 12.78 15.52 12.74 15.61 12.66C15.69 12.58 15.73 12.48 15.73 12.34L15.73 9.54C15.73 9.43 15.69 9.34 15.6 9.27C15.52 9.2 15.41 9.17 15.27 9.17C15.15 9.17 15.05 9.2 14.97 9.27C14.89 9.34 14.85 9.43 14.85 9.54L14.85 12.34C14.85 12.48 14.89 12.59 14.96 12.66C15.03 12.74 15.14 12.78 15.27 12.78ZM17.55 17.94C17.41 17.94 17.27 17.98 17.13 18.05C16.99 18.13 16.86 18.24 16.74 18.38L16.74 16.34L15.81 16.34L15.81 22.66L16.74 22.66L16.74 22.3C16.85 22.45 16.99 22.55 17.13 22.62C17.27 22.69 17.43 22.72 17.61 22.72C17.88 22.72 18.09 22.63 18.23 22.46C18.37 22.28 18.44 22.03 18.44 21.7L18.44 19.11C18.44 18.73 18.37 18.44 18.21 18.24C18.06 18.04 17.84 17.94 17.55 17.94ZM17.5 21.57C17.5 21.72 17.47 21.83 17.42 21.89C17.37 21.96 17.29 21.99 17.17 21.99C17.1 21.99 17.02 21.97 16.95 21.94C16.88 21.91 16.81 21.85 16.74 21.78L16.74 18.87C16.8 18.81 16.86 18.76 16.92 18.73C16.99 18.7 17.05 18.68 17.12 18.68C17.24 18.68 17.34 18.72 17.4 18.8C17.47 18.89 17.5 19.01 17.5 19.16L17.5 21.57ZM14.2 21.54C14.12 21.64 14.02 21.72 13.92 21.79C13.82 21.86 13.73 21.89 13.66 21.89C13.58 21.89 13.52 21.86 13.48 21.81C13.44 21.76 13.42 21.68 13.42 21.58L13.42 18L12.5 18L12.5 21.9C12.5 22.18 12.56 22.38 12.66 22.52C12.77 22.66 12.93 22.73 13.14 22.73C13.32 22.73 13.49 22.68 13.68 22.58C13.86 22.48 14.03 22.34 14.2 22.15L14.2 22.66L15.12 22.66L15.12 18L14.2 18L14.2 21.54ZM15.23 1C7.08 1 0.47 7.71 0.47 16C0.47 24.29 7.08 31 15.23 31C23.38 31 29.99 24.29 29.99 16C29.99 7.71 23.38 1 15.23 1ZM17.62 8.41L18.65 8.41L18.65 12.34C18.65 12.47 18.67 12.55 18.71 12.61C18.76 12.66 18.83 12.69 18.92 12.69C19 12.69 19.1 12.65 19.21 12.58C19.33 12.51 19.43 12.42 19.53 12.3L19.53 8.41L20.56 8.41L20.56 13.54L19.53 13.54L19.53 12.97C19.34 13.18 19.14 13.34 18.94 13.45C18.73 13.56 18.53 13.61 18.34 13.61C18.1 13.61 17.92 13.54 17.8 13.38C17.68 13.23 17.62 13 17.62 12.7L17.62 8.41ZM13.79 9.58C13.79 9.18 13.93 8.87 14.2 8.63C14.48 8.4 14.86 8.28 15.32 8.28C15.75 8.28 16.1 8.4 16.37 8.65C16.65 8.9 16.78 9.22 16.78 9.61L16.78 12.26C16.78 12.7 16.65 13.05 16.38 13.29C16.11 13.54 15.75 13.67 15.28 13.67C14.83 13.67 14.46 13.54 14.19 13.28C13.92 13.02 13.79 12.68 13.79 12.24L13.79 9.58ZM10.98 6.58L11.73 9.36L11.81 9.36L12.52 6.58L13.7 6.58L12.35 10.65L12.35 13.54L11.19 13.54L11.19 10.78L9.81 6.58L10.98 6.58ZM24.49 21.23C24.49 23.08 23.01 24.59 21.18 24.59L9.69 24.59C7.86 24.59 6.38 23.08 6.38 21.23L6.38 18.52C6.38 16.66 7.86 15.16 9.69 15.16L21.18 15.16C23.01 15.16 24.49 16.66 24.49 18.52L24.49 21.23ZM20.32 17.89C19.91 17.89 19.57 18.01 19.31 18.27C19.05 18.52 18.92 18.85 18.92 19.25L18.92 21.35C18.92 21.8 19.04 22.15 19.28 22.4C19.51 22.66 19.84 22.79 20.25 22.79C20.7 22.79 21.05 22.67 21.28 22.43C21.51 22.18 21.62 21.83 21.62 21.35L21.62 21.11L20.68 21.11L20.68 21.32C20.68 21.59 20.65 21.77 20.59 21.85C20.53 21.93 20.42 21.97 20.27 21.97C20.12 21.97 20.02 21.93 19.96 21.83C19.9 21.73 19.87 21.57 19.87 21.32L19.87 20.44L21.62 20.44L21.62 19.25C21.62 18.81 21.51 18.47 21.28 18.24C21.06 18 20.74 17.89 20.32 17.89ZM20.68 19.72L19.87 19.72L19.87 19.25C19.87 19.05 19.9 18.91 19.96 18.83C20.03 18.74 20.13 18.7 20.28 18.7C20.42 18.7 20.52 18.74 20.58 18.83C20.65 18.91 20.68 19.05 20.68 19.25L20.68 19.72Z" />
</svg>